<svg width="70" height="70" viewBox="0 0 70 70" fill="none" xmlns="http://www.w3.org/2000/svg">
<path fill-rule="evenodd" clip-rule="evenodd" d="M35.2668 6C22.4191 6 12 16.4163 12 29.2668C12 39.5464 18.6664 48.268 27.9113 51.3441C29.074 51.5596 29.5011 50.8394 29.5011 50.2247C29.5011 49.6702 29.4792 47.837 29.4694 45.8934C22.996 47.3005 21.6305 43.1481 21.6305 43.1481C20.5723 40.4586 19.047 39.7433 19.047 39.7433C16.9361 38.2995 19.2056 38.3291 19.2056 38.3291C21.5424 38.4931 22.7729 40.7271 22.7729 40.7271C24.8477 44.284 28.2159 43.2553 29.5432 42.6609C29.7527 41.157 30.3553 40.1299 31.0209 39.5491C25.8529 38.9613 20.4202 36.9657 20.4202 28.0505C20.4202 25.5103 21.3291 23.4349 22.8177 21.8052C22.576 21.219 21.7798 18.8521 23.043 15.6474C23.043 15.6474 24.9965 15.0229 29.4415 18.0334C31.2981 17.5177 33.2888 17.2591 35.2657 17.2503C37.2432 17.2596 39.2349 17.5183 41.0943 18.0334C45.5349 15.0234 47.4862 15.648 47.4862 15.648C48.7527 18.8527 47.9565 21.219 47.7148 21.8058C49.2066 23.4344 50.109 25.5103 50.109 28.0511C50.109 36.987 44.6659 38.9547 39.4848 39.53C40.3194 40.2519 41.0631 41.6683 41.0631 43.8394C41.0631 46.9522 41.0369 49.4574 41.0369 50.2236C41.0369 50.8416 41.4558 51.5678 42.6348 51.3392C51.8748 48.2592 58.5325 39.5409 58.5325 29.2646C58.5336 16.4169 48.1167 6 35.2668 6Z" fill="black"/>
<path d="M20.8129 39.4053C20.7609 39.5212 20.5788 39.5557 20.4137 39.4764C20.2441 39.3998 20.1501 39.2429 20.2048 39.1264C20.254 39.0083 20.4366 38.9749 20.6056 39.0542C20.7752 39.1308 20.8709 39.2894 20.8129 39.4053ZM21.7552 40.4575C21.6441 40.5598 21.427 40.5122 21.2794 40.3492C21.1273 40.1868 21.0989 39.9697 21.2116 39.8658C21.3253 39.763 21.5359 39.8111 21.6873 39.9735C21.8405 40.1376 21.8705 40.3525 21.7546 40.4569L21.7552 40.4575ZM22.6723 41.7962C22.5301 41.8958 22.2966 41.8028 22.1527 41.5955C22.0094 41.3894 22.0095 41.1416 22.1555 41.0416C22.2998 40.942 22.5295 41.0317 22.675 41.2368C22.8183 41.4473 22.8183 41.6956 22.6723 41.7962ZM23.929 43.0912C23.8016 43.2318 23.5298 43.1941 23.3312 43.0021C23.1278 42.8145 23.0715 42.5482 23.1989 42.4076C23.3285 42.2671 23.6014 42.3065 23.8016 42.4968C24.0039 42.6838 24.0652 42.9512 23.929 43.0912ZM25.6637 43.8426C25.6068 44.0253 25.3454 44.1079 25.0818 44.0308C24.8182 43.9509 24.6465 43.7376 24.699 43.5539C24.7537 43.3702 25.0173 43.2843 25.2825 43.3669C25.545 43.4456 25.7178 43.6567 25.6637 43.8426ZM27.5668 43.9821C27.5739 44.1735 27.3502 44.3332 27.0735 44.3365C26.7957 44.343 26.5704 44.1877 26.5671 43.9985C26.5671 43.8049 26.7859 43.6474 27.0637 43.643C27.3404 43.6376 27.5668 43.7918 27.5668 43.9821ZM29.3387 43.6808C29.3715 43.8678 29.1801 44.0603 28.905 44.1112C28.6348 44.1615 28.3855 44.0455 28.3505 43.8596C28.3177 43.6682 28.5129 43.4768 28.7825 43.4265C29.0576 43.3784 29.3037 43.4905 29.3387 43.6808Z" fill="black"/>
<path d="M13.5926 59.2277H7.74101C7.66849 59.2277 7.59895 59.2565 7.54767 59.3077C7.49639 59.359 7.46758 59.4286 7.46758 59.5011V62.3623C7.46758 62.4349 7.49639 62.5044 7.54767 62.5557C7.59895 62.607 7.66849 62.6358 7.74101 62.6358H10.0231V66.1905C10.0231 66.1905 9.5107 66.3655 8.09266 66.3655C6.42141 66.3655 4.0857 65.7552 4.0857 60.6189C4.0857 55.4821 6.5182 54.8056 8.80195 54.8056C10.7784 54.8056 11.6293 55.1534 12.1718 55.3213C12.3413 55.3727 12.4999 55.2032 12.4999 55.0523L13.1523 52.2878C13.1534 52.2464 13.1444 52.2054 13.1261 52.1682C13.1078 52.1311 13.0808 52.0989 13.0473 52.0745C12.827 51.917 11.4849 51.1667 8.09375 51.1667C4.18687 51.1667 0.179375 52.8281 0.179375 60.8191C0.179375 68.8089 4.76766 69.9995 8.63406 69.9995C11.8355 69.9995 13.7774 68.6312 13.7774 68.6312C13.8573 68.5874 13.866 68.4753 13.866 68.4234V59.5005C13.866 59.428 13.8372 59.3585 13.7859 59.3072C13.7346 59.2559 13.6651 59.2277 13.5926 59.2277ZM43.4798 51.8492H40.1844C40.1484 51.8494 40.1128 51.8566 40.0797 51.8705C40.0465 51.8844 40.0164 51.9047 39.9911 51.9303C39.9659 51.9558 39.9458 51.9861 39.9323 52.0194C39.9187 52.0527 39.9118 52.0883 39.912 52.1243L39.9131 58.4921H34.7769V52.1243C34.7771 52.0884 34.7702 52.0528 34.7567 52.0195C34.7431 51.9863 34.7232 51.956 34.6979 51.9305C34.6727 51.9049 34.6427 51.8846 34.6096 51.8707C34.5765 51.8567 34.541 51.8494 34.5051 51.8492H31.2102C31.1742 51.8494 31.1386 51.8566 31.1055 51.8705C31.0723 51.8844 31.0422 51.9047 31.0169 51.9303C30.9916 51.9558 30.9716 51.9861 30.958 52.0194C30.9445 52.0527 30.9376 52.0883 30.9378 52.1243V69.3673C30.9378 69.5188 31.0603 69.6423 31.2102 69.6423H34.5051C34.541 69.6421 34.5766 69.6348 34.6097 69.6209C34.6428 69.6069 34.6729 69.5865 34.6981 69.5609C34.7234 69.5353 34.7433 69.505 34.7568 69.4717C34.7704 69.4383 34.7772 69.4027 34.7769 69.3667V61.9916H39.9131L39.9044 69.3667C39.9044 69.5188 40.0269 69.6423 40.1778 69.6423H43.4798C43.5158 69.6421 43.5514 69.6348 43.5845 69.6209C43.6176 69.6069 43.6477 69.5865 43.6729 69.5609C43.6982 69.5353 43.7181 69.505 43.7316 69.4717C43.7451 69.4383 43.7519 69.4027 43.7516 69.3667V52.1237C43.752 52.0878 43.7452 52.0522 43.7317 52.0189C43.7182 51.9856 43.6983 51.9553 43.673 51.9298C43.6477 51.9043 43.6176 51.884 43.5845 51.8702C43.5513 51.8563 43.5158 51.8492 43.4798 51.8492ZM17.6859 52.2413C16.5134 52.2413 15.5619 53.2 15.5619 54.3867C15.5619 55.5718 16.5134 56.5332 17.6859 56.5332C18.8595 56.5332 19.8105 55.5718 19.8105 54.3867C19.8105 53.2 18.859 52.2413 17.6859 52.2413ZM19.3025 57.4957H16.018C15.867 57.4957 15.7325 57.651 15.7325 57.802V69.2054C15.7325 69.5406 15.9414 69.6402 16.2116 69.6402H19.1702C19.4955 69.6402 19.5748 69.4805 19.5748 69.1999V57.7708C19.575 57.7349 19.5681 57.6993 19.5544 57.6661C19.5408 57.6328 19.5208 57.6026 19.4955 57.5771C19.4702 57.5516 19.4402 57.5314 19.4071 57.5175C19.3739 57.5036 19.3384 57.4958 19.3025 57.4957ZM56.2745 57.5214H53.0042C52.9683 57.5217 52.9328 57.529 52.8997 57.5431C52.8667 57.5571 52.8367 57.5774 52.8115 57.603C52.7863 57.6286 52.7664 57.6589 52.7529 57.6922C52.7395 57.7255 52.7327 57.7611 52.733 57.797V66.2517C52.733 66.2517 51.9017 66.8587 50.7232 66.8587C49.5447 66.8587 49.2319 66.3245 49.2319 65.17V57.797C49.2322 57.7611 49.2254 57.7254 49.2118 57.6921C49.1983 57.6588 49.1784 57.6284 49.1531 57.6028C49.1279 57.5772 49.0978 57.5569 49.0647 57.5429C49.0316 57.5289 48.996 57.5216 48.9601 57.5214H45.6416C45.569 57.522 45.4996 57.5513 45.4485 57.603C45.3975 57.6546 45.369 57.7244 45.3693 57.797V65.7278C45.3693 69.1567 47.2806 69.9956 49.9095 69.9956C52.0663 69.9956 53.8054 68.8034 53.8054 68.8034C53.8054 68.8034 53.8874 69.4323 53.9257 69.5062C53.964 69.5805 54.0608 69.6555 54.1663 69.6555L56.2773 69.6462C56.3133 69.646 56.349 69.6388 56.3822 69.6249C56.4155 69.6109 56.4457 69.5906 56.4711 69.565C56.4965 69.5394 56.5166 69.5091 56.5302 69.4757C56.5439 69.4423 56.5508 69.4066 56.5507 69.3705L56.5491 57.7954C56.5488 57.7229 56.5199 57.6534 56.4687 57.602C56.4175 57.5506 56.3482 57.5214 56.2756 57.5209L56.2745 57.5214ZM65.2116 57.1342C63.3544 57.1342 62.0911 57.9627 62.0911 57.9627V52.1237C62.0913 52.0878 62.0844 52.0522 62.0709 52.019C62.0574 51.9857 62.0374 51.9555 62.0122 51.9299C61.9869 51.9044 61.9569 51.8841 61.9238 51.8701C61.8907 51.8562 61.8552 51.8489 61.8193 51.8487H58.5156C58.4796 51.8487 58.4439 51.8558 58.4106 51.8696C58.3773 51.8835 58.3471 51.9038 58.3217 51.9293C58.2963 51.9549 58.2762 51.9852 58.2625 52.0186C58.2489 52.052 58.242 52.0877 58.2422 52.1237V69.3667C58.242 69.4028 58.2489 69.4385 58.2625 69.4719C58.2762 69.5052 58.2963 69.5356 58.3217 69.5611C58.3471 69.5867 58.3773 69.607 58.4106 69.6208C58.4439 69.6347 58.4796 69.6418 58.5156 69.6418H60.8081C60.912 69.6418 60.9897 69.5888 61.0471 69.4952C61.1034 69.4023 61.186 68.7001 61.186 68.7001C61.186 68.7001 62.5368 69.9798 65.0951 69.9798C68.0974 69.9798 69.8201 68.4573 69.8201 63.1427C69.8201 57.8282 67.0698 57.1342 65.2116 57.1342ZM63.9209 66.8489C62.7873 66.8145 62.0178 66.2998 62.0178 66.2998V60.8393C62.0178 60.8393 62.7769 60.3745 63.7077 60.2902C64.8851 60.1847 66.0198 60.5407 66.0198 63.3495C66.0198 66.3119 65.508 66.897 63.9209 66.8489ZM29.091 66.7844C28.9472 66.7844 28.5786 66.8429 28.1996 66.8429C26.9855 66.8429 26.5737 66.2785 26.5737 65.5479V60.6993H29.0456C29.0817 60.6993 29.1175 60.6922 29.1508 60.6783C29.1841 60.6644 29.2143 60.6441 29.2398 60.6184C29.2652 60.5928 29.2853 60.5624 29.2989 60.529C29.3125 60.4956 29.3194 60.4598 29.3191 60.4237V57.768C29.3192 57.732 29.3122 57.6964 29.2986 57.6631C29.2849 57.6298 29.2648 57.5995 29.2394 57.574C29.214 57.5485 29.1838 57.5282 29.1505 57.5144C29.1173 57.5006 29.0816 57.4935 29.0456 57.4935H26.5737L26.5699 54.2287C26.5699 54.1045 26.5065 54.0427 26.3632 54.0427H22.9945C22.8643 54.0427 22.7938 54.1007 22.7938 54.2259V57.6002C22.7938 57.6002 21.1055 58.0076 20.9918 58.0404C20.935 58.057 20.8851 58.0915 20.8496 58.1388C20.8141 58.1862 20.7949 58.2437 20.7949 58.3029V60.4231C20.7947 60.459 20.8016 60.4946 20.8151 60.5279C20.8286 60.5611 20.8486 60.5914 20.8738 60.617C20.8991 60.6425 20.9291 60.6628 20.9622 60.6768C20.9953 60.6907 21.0308 60.698 21.0667 60.6982H22.7938V65.7995C22.7938 69.5893 25.4516 69.9612 27.2453 69.9612C28.064 69.9612 29.0445 69.6987 29.2064 69.6385C29.3048 69.6019 29.3612 69.5007 29.3612 69.3908L29.3634 67.0584C29.3622 66.9861 29.3331 66.9171 29.2821 66.8659C29.2311 66.8146 29.1622 66.7852 29.0899 66.7838L29.091 66.7844Z" fill="black"/>
</svg>
