<svg width="70" height="70" viewBox="0 0 70 70" fill="none" xmlns="http://www.w3.org/2000/svg">
<path d="M55.4167 8.75C56.9638 8.75 58.4475 9.36458 59.5415 10.4585C60.6354 11.5525 61.25 13.0362 61.25 14.5833V55.4167C61.25 56.9638 60.6354 58.4475 59.5415 59.5415C58.4475 60.6354 56.9638 61.25 55.4167 61.25H14.5833C13.0362 61.25 11.5525 60.6354 10.4585 59.5415C9.36458 58.4475 8.75 56.9638 8.75 55.4167V14.5833C8.75 13.0362 9.36458 11.5525 10.4585 10.4585C11.5525 9.36458 13.0362 8.75 14.5833 8.75H55.4167ZM53.9583 53.9583V38.5C53.9583 35.9782 52.9566 33.5598 51.1734 31.7766C49.3902 29.9934 46.9718 28.9917 44.45 28.9917C41.9708 28.9917 39.0833 30.5083 37.6833 32.7833V29.5458H29.5458V53.9583H37.6833V39.5792C37.6833 37.3333 39.4917 35.4958 41.7375 35.4958C42.8205 35.4958 43.8591 35.926 44.6249 36.6918C45.3906 37.4576 45.8208 38.4962 45.8208 39.5792V53.9583H53.9583ZM20.0667 24.9667C21.3662 24.9667 22.6126 24.4504 23.5315 23.5315C24.4504 22.6126 24.9667 21.3662 24.9667 20.0667C24.9667 17.3542 22.7792 15.1375 20.0667 15.1375C18.7594 15.1375 17.5056 15.6568 16.5812 16.5812C15.6568 17.5056 15.1375 18.7594 15.1375 20.0667C15.1375 22.7792 17.3542 24.9667 20.0667 24.9667ZM24.1208 53.9583V29.5458H16.0417V53.9583H24.1208Z" fill="black"/>
</svg>
